<svg xmlns="http://www.w3.org/2000/svg" width="28.644" height="35.826" viewBox="0 0 28.644 35.826">
  <g id="Icon_ionic-ios-notifications" data-name="Icon ionic-ios-notifications" transform="translate(0 0.001)">
    <path id="Path_26105" data-name="Path 26105" d="M18.92,33.082c2.785,0,4.307-1.97,4.307-4.746H14.6C14.6,31.112,16.126,33.082,18.92,33.082Z" transform="translate(-4.616 2.743)" fill="#0A2FEB"/>
    <path id="Path_26106" data-name="Path 26106" d="M35.042,30.462c-1.379-1.818-4.092-2.883-4.092-11.023,0-8.354-3.689-11.712-7.128-12.518-.322-.081-.555-.188-.555-.528v-.26a2.185,2.185,0,1,0-4.37,0v.26c0,.331-.233.448-.555.528-3.447.815-7.128,4.164-7.128,12.518,0,8.139-2.713,9.2-4.092,11.023a1.777,1.777,0,0,0,1.424,2.847H33.627A1.778,1.778,0,0,0,35.042,30.462Z" transform="translate(-6.761 -3.932)" fill="#0A2FEB"/>
  </g>
</svg>
